# xmcd CD database file
#
# Track frame offsets:
#	182
#	10782
#	23810
#	36125
#	49085
#	61847
#	75885
#	85847
#	97117
#	110557
#
# Disc length: 1673 seconds
#
# Revision: 0
# Processed by: cddbd v1.4PL0 Copyright (c) Steve Scherf et al.
# Submitted via: CDex 1.50beta10
#
DISCID=6c06870a
DTITLE=Merle Haggard - The Best Of Merle Haggard
DYEAR=1900
DGENRE=Country
TTITLE0=Today I Started Loving You Again
TTITLE1=Okie From Muskogee
TTITLE2=Swinging Doors
TTITLE3=Branded Man
TTITLE4=I'm A Lonesome Fugitive
TTITLE5=The Fightin' Side Of Me
TTITLE6=(My Friends Are Gonna Be) Strangers
TTITLE7=I Thew Away The Roses
TTITLE8=Sing Me Back Home
TTITLE9=Soldier's Last Letter
EXTD=
EXTT0=
EXTT1=
EXTT2=
EXTT3=
EXTT4=
EXTT5=
EXTT6=
EXTT7=
EXTT8=
EXTT9=
PLAYORDER=
